<?xml version="1.0" standalone="no"?>
<!DOCTYPE svg PUBLIC "-//W3C//DTD SVG 1.1//EN" "http://www.w3.org/Graphics/SVG/1.1/DTD/svg11.dtd" >
<!--
2013-9-30: Created.
-->
<svg>
<metadata>
Created by iconfont
</metadata>
<defs>

<font id="iconfont" horiz-adv-x="1024" >
  <font-face
    font-family="iconfont"
    font-weight="500"
    font-stretch="normal"
    units-per-em="1024"
    ascent="896"
    descent="-128"
  />
    <missing-glyph />
    
    <glyph glyph-name="zuji" unicode="&#58897;" d="M664.919 679.932c-47.671 21.669-97.942 29.841-149.823 30.831-42.966 0.867-83.827-7.553-121.592-28.726-46.928-26.25-77.017-64.387-84.198-120.726-8.791-69.587 5.572-131.746 50.89-185.608 13.001-15.601 25.755-31.451 37.642-47.919 26.126-35.784 33.060-75.531 22.412-118.621-6.934-27.984-17.954-53.986-31.451-79.122-9.287-17.583-15.849-36.156-19.44-55.719-4.581-25.012-4.458-50.148 1.114-75.036 7.182-32.565 21.297-61.415 44.823-84.941 30.831-30.708 68.349-43.833 110.82-39.87 56.958 5.2 104.381 29.469 139.299 77.017 20.183 27.364 36.403 57.081 50.024 88.284 36.28 83.084 63.644 169.14 84.817 257.3 12.754 53.243 18.573 107.477 14.116 162.577-1.733 11.392-3.096 22.907-5.2 34.175-16.716 87.541-64.635 149.823-144.252 186.103zM775.615 452.597c6.439-63.644-5.077-122.83-16.716-171.368-19.316-80.36-33.060-126.793-65.997-202.447-7.429-16.84-53.243-160.967-177.188-167.901-55.843-3.096-112.058 68.597-109.21 121.221 4.705 88.037 35.66 114.287 49.157 157.996 9.782 31.574 11.144 85.313-8.296 129.764-22.907 52.624-104.876 116.144-101.162 200.962 2.229 48.414 10.277 99.304 70.578 126.297 87.665 39.127 192.294 14.611 235.631-5.077 72.311-32.936 113.172-90.389 123.202-189.446zM278.102 828.518c-49.405 21.050-99.552-3.096-113.42-54.234-15.849-58.815 21.793-127.659 79.988-146.109 48.29-15.23 94.599 11.392 105.743 60.796 5.2 22.907 2.848 45.319-5.943 69.587-12.258 30.46-33.432 55.843-66.368 69.959zM313.886 706.678c-5.448-29.717-32.441-46.557-61.539-38.632-35.041 9.658-59.063 49.776-50.89 85.189 7.058 30.708 36.403 46.185 66.244 34.794 19.935-7.677 33.184-22.288 41.109-40.118 5.82-14.239 7.677-27.488 5.077-41.232zM507.295 872.103c-26.374 28.726-65.501 28.726-91.38 0-32.193-35.784-28.85-100.419 6.934-132.736 25.755-23.278 61.168-22.040 84.694 3.467 20.802 22.535 26.126 49.9 23.155 76.026-3.343 22.288-10.401 39.127-23.402 53.243zM500.361 814.030c1.61-14.487-1.238-29.717-12.754-42.223-13.001-14.116-32.689-14.859-47.052-1.981-19.811 17.954-21.669 53.738-3.838 73.674 14.363 15.973 36.032 15.973 50.643 0 7.182-7.677 11.144-17.087 13.001-29.469zM716.429 825.67c-15.23 29.965-47.671 39.004-75.778 21.173-35.041-22.164-47.176-76.645-25.012-111.81 15.973-25.259 45.69-32.441 71.073-16.716 22.535 13.868 33.184 35.413 36.775 57.701 2.229 19.316 0.371 35.041-7.058 49.652zM696.37 778.37c-1.857-11.639-7.429-22.783-19.068-29.965-13.249-8.172-28.603-4.458-37.022 8.667-11.515 18.202-5.2 46.557 13.001 58.072 14.611 9.287 31.451 4.581 39.375-11.020 3.962-7.553 4.953-15.725 3.715-25.755zM857.585 717.326c-12.258 27.86-41.356 37.642-67.606 22.907-32.813-18.449-46.557-67.111-28.107-100.047 13.249-23.65 39.747-31.574 63.644-18.573 21.050 11.515 31.822 30.46 36.156 50.519 2.972 17.211 1.981 31.574-4.086 45.195zM832.696 677.084c-1.981-9.163-6.934-17.83-16.468-23.031-10.896-5.943-22.907-2.353-28.974 8.544-8.42 14.982-2.105 37.27 12.754 45.69 12.011 6.686 25.259 2.353 30.831-10.401 2.848-6.439 3.219-12.877 1.857-20.802z"  horiz-adv-x="1024" />

    
    <glyph glyph-name="hebingxingzhuangfuzhi" unicode="&#59048;" d="M701.147429 23.356952l-137.654858-139.946666a37.888 37.888 0 0 0-54.174476 0l-137.703619 139.946666h-295.009524C34.328381 23.356952 0 58.221714 0 101.278476v716.8C0 861.135238 34.328381 896 76.604952 896H996.205714C1038.433524 896 1072.761905 861.135238 1072.761905 818.078476v-716.8c0-43.056762-34.328381-77.921524-76.604953-77.921524h-295.009523zM187.392 370.297905a71.68 71.68 0 0 1 71.094857 72.313905 71.68 71.68 0 0 1-71.094857 72.265142 71.68 71.68 0 0 1-71.046095-72.265142 71.68 71.68 0 0 1 71.046095-72.313905z m348.988952 0a71.68 71.68 0 0 1 71.094858 72.313905A71.68 71.68 0 0 1 536.380952 514.876952a71.68 71.68 0 0 1-71.094857-72.265142A71.68 71.68 0 0 1 536.380952 370.297905z m348.988953 0a71.68 71.68 0 0 1 71.046095 72.313905 71.68 71.68 0 0 1-71.046095 72.265142 71.68 71.68 0 0 1-71.094857-72.265142 71.68 71.68 0 0 1 71.094857-72.313905z"  horiz-adv-x="1072" />

    
    <glyph glyph-name="daifukuan" unicode="&#58981;" d="M589.489 213.068c-34.232 0-61.99 27.818-61.99 62.162v62.164c0 34.344 27.758 62.16 61.99 62.16H961.61v-186.486H589.489z m46.551 137.266c-25.717 0-46.551-20.832-46.551-46.605 0-25.774 20.833-46.61 46.551-46.61 25.658 0 46.494 20.836 46.494 46.61 0 25.773-20.837 46.605-46.494 46.605z m-139.538-12.942v-62.163c0-51.487 41.668-93.269 92.987-93.269h310.13v-124.328c0-51.489-41.67-93.266-93.046-93.266h-651.14c-51.373 0-93.043 41.777-93.043 93.266V648.26c0 51.488 41.67 93.21 93.043 93.21h298.606l-72.835-30.425H139.935c-25.717 0-46.551-20.891-46.551-46.604 0-25.779 20.833-46.612 46.551-46.612h759.683v-187.162h-310.13c-51.318-0.001-92.986-41.782-92.986-93.275zM186.429 554.986h-61.993v-62.161h30.997v31.053h30.997v31.108h-0.001z m0-93.27h-61.993v-62.164h32.303l-1.306 31.114 30.997-0.627v31.677h-0.001z m0-93.215h-61.993v-62.162h31.622l-0.625 31.053h30.997v31.109h-0.001z m0-93.272h-61.993v-62.162h31.622l-0.625 31.11 30.997-0.68v31.732h-0.001z m0-93.268h-61.993v-62.165h30.997v31.11h30.997v31.055h-0.001z m0-93.216h-61.993v-62.163h31.622l-0.625 30.43h30.997v31.733h-0.001z m124.042 561.443L674.813 803.634l69.77-153.446H310.47z m423.097 91.283h73.005c27.136 0 51.375-11.863 68.349-30.426H748.386l-14.818 30.426z"  horiz-adv-x="1024" />

    
    <glyph glyph-name="duizhang-tuikuan" unicode="&#58898;" d="M495.1 682.7c-171.2 0-310-133.7-310-298.7s138.7-298.7 310-298.7c171.2 0 310 133.7 310 298.7-0.1 164.9-138.9 298.7-310 298.7z m121.2-316.1c12.2 0 22.1-9.5 22.1-21.3s-9.9-21.3-22.1-21.3h-99.2v-105.5c0-11.7-9.9-21.2-22.1-21.2-12.1 0-22.1 9.5-22.1 21.2V324.1h-99.2c-12.2 0-22.1 9.5-22.1 21.3s9.9 21.3 22.1 21.3H473v50h-99.2c-12.2 0-22.1 9.5-22.1 21.3 0 11.7 9.9 21.2 22.1 21.2H473v5.7l-70.8 69.4s-0.1 0-0.1 0.1c0 0 0 0.1-0.1 0.1l-0.5 0.5 0.1 0.1c-7.9 8.4-7.7 21.3 0.8 29.3s21.8 7.9 30.4 0.3l0.1 0.1 0.6-0.6s0.1 0 0.1-0.1c0 0 0-0.1 0.1-0.1l60.9-59.8 61.3 60.2c8.5 8.4 22.5 8.5 31.2 0.3s8.8-21.7 0.3-30.1l-70.3-68.9v-6.5h99.2c12.2 0 22.1-9.5 22.1-21.2 0-11.8-9.9-21.3-22.1-21.3h-99.2v-50l99.2-0.1zM495.1 832c-153.7 0-289.7-72-374.4-182.7L92.6 665l-0.2-0.1c-9.1 4.6-20.5 1.6-25.7-7.1-1.7-2.8-2.2-5.8-2.3-8.8l-0.4-0.2 10.4-101.2 0.5-0.3c0.5-5.9 3.6-11.4 9.3-14.6 5.7-3.2 12.2-2.9 17.7-0.4l0.5-0.3 94.3 41.1v0.4c3.4 1.6 6.5 3.8 8.5 7.1 5 8.4 2.3 18.8-5.7 24.4v0.4L171.7 621C246 715 363 776 495.1 776c224.7 0 406.8-175.5 406.8-392S719.8-8 495.1-8c-154.6 0-289 83-357.8 205.3l-52.9-22.9C162.4 32.700000000000045 316.9-64 495.1-64 751.8-64 960 136.60000000000002 960 384S751.8 832 495.1 832z"  horiz-adv-x="1024" />

    
    <glyph glyph-name="daishouhuocopyx" unicode="&#58940;" d="M609.174252 18.511736h-101.536798c0 110.285156-90.903819 199.676626-203.050328 199.676626s-203.050328-89.39147-203.050328-199.676626a102.397673 102.397673 0 0 0-71.801686 29.246506A99.000704 99.000704 0 0 0 0 118.350049V352.764173a99.117039 99.117039 0 0 0 34.458295 74.919452l219.360432 189.85799V796.184954C253.841994 851.304265 299.28227 896 355.355525 896h659.919384C1071.348163 896 1116.811706 851.304265 1116.811706 796.161687v-677.811638c0-55.142578-45.463543-99.838313-101.536797-99.838313 0 71.336348-38.692872 137.251505-101.513531 172.919679a206.028493 206.028493 0 0 1-203.073595 0c-62.820658-35.668174-101.513531-101.583331-101.513531-172.919679zM242.790212 403.951376c0 21.01002-11.633455 40.06562-29.758379 48.627843a48.115971 48.115971 0 0 1-54.049033-8.864693l-93.556248-88.344459c-15.612097-14.704687-21.01002-38.111199-13.564608-58.795483 7.445411-20.70755 26.175274-34.34196 47.06896-34.318693h93.53298c13.355207 0 26.152007 5.607325 35.598373 15.612097 9.423099 10.004772 14.727954 23.546113 14.727955 37.692395v88.390993zM291.348254-127.744064A145.557792 145.557792 0 0 0 165.195065-54.616164a146.744405 146.744405 0 0 0 0 146.2558 145.557792 145.557792 0 0 0 126.153189 73.104632c80.456977 0 145.65086-65.473086 145.65086-146.232532 0-80.782713-65.193883-146.2558-145.65086-146.2558z m534.115198 0a145.557792 145.557792 0 0 0-126.153189 73.1279 146.744405 146.744405 0 0 0 0 146.2558 145.557792 145.557792 0 0 0 126.153189 73.104632c80.456977 0 145.674127-65.473086 145.674127-146.232532 0-80.782713-65.21715-146.2558-145.65086-146.2558z"  horiz-adv-x="1117" />

    
    <glyph glyph-name="fahuotixing" unicode="&#58899;" d="M662.016 15.872000009999965c0-58.88 47.616-106.496 106.496-106.496s106.496 47.616 106.496 106.496-47.616 106.496-106.496 106.496-106.496-47.616-106.496-106.496zM151.552 16.896000009999966c0-58.88 47.616-105.984 105.984-105.984S363.52-41.47199998999997 363.52 16.896000009999966c0 58.88-47.616 105.984-105.984 105.984s-105.984-47.104-105.984-105.984zM857.088 562.17600001h-174.08V665.08800001c0 34.816-20.48 60.928-53.76 67.584H92.16c-37.888 0-71.68-20.48-92.16-54.272v-621.056h92.672c17.92 75.264 84.992 129.536 164.864 129.536s146.944-54.784 164.864-129.536h180.224c17.92 75.264 84.992 129.536 164.864 129.536s146.944-54.784 164.864-129.536H1024v202.24l-166.912 302.592zM689.664 268.80000000999996V480.25600001h121.856l122.368-211.456h-244.224z"  horiz-adv-x="1024" />

    
    <glyph glyph-name="daifahuo" unicode="&#58900;" d="M516.518-122.98H145.067c-80.314 0-130.008 50.196-130.008 130.007 0 183.216 0 366.432-0.502 549.648 0 18.07 3.012 24.094 22.588 23.592a12885.077 12885.077 0 0 1 278.588 0c16.063 0 21.585-4.016 20.58-20.58-1.505-36.644-0.501-73.789 0-110.432 0-8.031-4.015-18.573 3.012-23.09 8.032-5.02 15.06 4.015 22.087 8.031 44.172 26.604 88.847 53.208 132.517 81.318 13.553 8.533 22.589 8.031 35.64-0.502 42.164-28.612 85.835-55.216 128.502-82.824 6.023-4.015 13.05-10.54 20.58-6.525 8.031 4.517 3.514 13.553 3.514 20.58 0.502 38.651 0.502 76.8 0 115.451 0 13.051 1.506 19.075 17.066 19.075 101.396-0.502 202.29-0.502 303.687 0 14.055 0 16.062-5.522 16.062-17.569-0.502-189.24 0-377.976-0.502-567.216-0.502-66.76-53.207-117.96-120.972-118.462-126.996-1.004-253.992-0.502-380.988-0.502zM391.53 510.996v98.886c0 83.326 0.501 167.153-0.503 250.479 0 15.56 3.012 21.584 20.079 21.082a6526.886 6526.886 0 0 1 198.274 0c14.055 0 18.573-3.514 18.071-18.07-0.502-110.432-0.502-220.361-0.502-330.793 0-5.521 3.012-12.549-3.514-15.56-6.023-2.51-10.54 3.513-15.059 7.027-27.607 20.58-55.215 40.659-81.82 62.243-11.042 9.035-19.074 9.035-30.619 0-32.125-24.596-65.757-47.686-104.408-75.294zM851.324 650.04c-50.196 0-100.392 0.502-150.588-0.502-14.055 0-18.572 3.514-18.07 18.07 0.502 65.256 1.004 130.51 0 195.766 0 14.556 4.517 18.07 18.572 17.568 66.259-0.502 132.016 0.502 198.275-0.502 67.262-1.004 118.462-52.706 119.968-119.466 0.502-29.114-1.004-58.73 0.502-87.844 1.004-18.07-3.011-24.596-22.588-23.592-49.192 1.506-97.882 0.502-146.07 0.502z m-676.14 0c-46.683 0-93.867 0.502-140.55-0.502-14.055 0-21.082 2.008-20.078 18.573 1.506 31.623 0 63.749 0.502 95.372C17.067 827.733 68.267 879.435 132.518 880.44c61.74 1.004 123.984 0 185.725 0.502 14.055 0 18.573-3.514 18.573-18.07-1.004-65.255-0.502-130.51 0-195.765 0-14.557-4.518-18.07-18.07-18.07-48.19 1.505-95.875 1.003-143.562 1.003z"  horiz-adv-x="1024" />

    
    <glyph glyph-name="icon_dw" unicode="&#58891;" d="M980.97303703 33.600853349999966a46.60337778 46.60337778 0 0 0-93.20675557 0c0 0.34952533 0.17476267 0.58254222 0.17476267 0.87381334h-0.524288c0 1.10683022 0.34952533 2.097152 0.34952533 3.20398222a280.72709689 280.72709689 0 0 1-78.9344711 195.38466133l0.46603377 0.40777956a44.73924267 44.73924267 0 0 0 31.22426312 76.66255644c12.52465778 0 23.76772267-5.24288 31.86505955-13.51497955l0.11650845 0.05825422A370.20558222 370.20558222 0 0 0 980.97303703 34.47466669000005h-0.17476267c0-0.29127111 0.17476267-0.524288 0.17476267-0.87381334z m-370.671616 284.92140089v-0.17476267l-0.69905067 0.05825423c-153.616384 0-278.16391111-125.65435733-278.16391111-280.72709689 0-1.10683022 0.34952533-2.097152 0.34952533-3.20398222h-0.17476267l0.11650845-0.87381334a46.60337778 46.60337778 0 0 0-93.14850133 0c0 0.34952533 0.17476267 0.58254222 0.17476266 0.87381334H238.23170369a371.02114133 371.02114133 0 0 0 220.43397689 338.74830222C404.54750813 417.26316091 369.30370369 483.5564658 369.30370369 558.7626666900001a240.29866667 240.29866667 0 1 0 240.99771734-240.24041245z m-0.69905067 393.4490169a152.91733333 152.91733333 0 1 1 0-305.83466667 152.91733333 152.91733333 0 0 1 0 305.83466667zM325.61303703 669.6787058a119.59591822 119.59591822 0 0 1-88.54641778-114.819072c0-45.90432711 26.27265422-85.63370667 64.83694933-105.61490489 15.61213155-8.09733689 30.75822933-23.41819733 33.26316088-50.09863111 2.15540622-23.12692622-4.718592-57.84644267-35.30205866-66.29330489-103.16822755-28.42806045-179.01522489-120.41147733-181.69491911-230.33719467 0.11650845-0.99032178 0.58254222-1.86413511 0.58254222-2.85445689a41.36049778 41.36049778 0 0 0-82.60448711 0c0 0.40777955 0.23301689 0.75730489 0.23301689 1.16508445H36.03129836c0 138.64504889 82.313216 248.97854578 198.00610133 296.747008a198.29737245 198.29737245 0 0 0-78.81796266 157.86894222c0 80.79860622 48.758784 150.23763911 118.83861333 181.69491912 32.79712711 14.73831822 56.68135822-2.85445689 62.44852622-25.45709512 6.93225245-27.08821333-10.89353955-42.00129422-10.89353955-42.00129422z"  horiz-adv-x="1024" />

    
    <glyph glyph-name="shouye" unicode="&#58892;" d="M951.168 348.51266667000004a30 30 0 0 0-42.427 0c-0.044 0.045-0.081 0.1-0.125 0.14l-0.007-0.007-382.545 382.54a20 20 0 0 1-28.284 0l-382.545-382.54a30 30 0 1 0-42.426 42.426L476.567 794.82966667a50 50 0 0 0 70.71 0l403.758-403.758-0.006-0.006c0.045-0.045 0.094-0.081 0.139-0.126a30 30 0 0 0 0-42.427z m-72.246 221.373a30 30 0 0 0-30 30v100h-100a30 30 0 0 0 0 60h130a30 30 0 0 0 30-30v-130a30 30 0 0 0-30-30z m-698-237.25a30 30 0 0 0 29.994-29.75h0.006v-307a20 20 0 0 1 20-20h137v235a50 50 0 0 0 50 50h188a50 50 0 0 0 50-50v-235h137a20 20 0 0 1 20 20v302.7a30 30 0 1 0 59.656 4.554c0-0.084 0-0.166-0.006-0.25h0.35v-337.004a50 50 0 0 0-50-50h-227V181.30166667000003a20 20 0 0 1-20 20h-128a20 20 0 0 1-20-20v-265.416h-227a50 50 0 0 0-50 50v337h0.006a30 30 0 0 0 29.994 29.75z"  horiz-adv-x="1024" />

    
    <glyph glyph-name="dongtai1" unicode="&#58928;" d="M612.584356 840.59154a8.099966 8.099966 0 0 0 1.721731 0 95.164813 95.164813 0 0 0-8.334747-45.07807L526.380374 579.436127a136.564638 136.564638 0 0 0-113.477779-96.377852 69.182315 69.182315 0 0 0-24.378158 4.265199 97.825672 97.825672 0 0 0-57.795406 125.21686 437.202491 437.202491 0 0 0 187.825289 189.233979l51.612824 25.630326a102.090871 102.090871 0 0 0 42.417212 13.14777m94.656119-269.177118a95.790898 95.790898 0 0 0 33.338989-5.986931 437.202491 437.202491 0 0 0 189.27311-187.864419l25.630326-51.612825a97.825672 97.825672 0 0 0 13.14777-44.021552 36.273759 36.273759 0 0 0-5.986931-0.430433 117.390806 117.390806 0 0 0-39.130269 8.647789l-215.959952 79.590967c-68.164928 25.121632-110.386488 88.277886-92.112653 137.934197a98.334365 98.334365 0 0 0 91.995262 63.782338m-645.649433-84.834423a117.390806 117.390806 0 0 0 39.130269-8.647789l216.077343-79.590967a160.434101 160.434101 0 0 0 81.312698-64.21277 85.303986 85.303986 0 0 0 10.799955-73.721426 98.216974 98.216974 0 0 0-91.877871-63.782338 95.790898 95.790898 0 0 0-33.338989 5.986931 436.615537 436.615537 0 0 0-189.233979 187.825289l-25.630326 51.612825a97.825672 97.825672 0 0 0-13.14777 44.021552 35.804196 35.804196 0 0 0 5.86954 0.430433m549.897665-201.442623a69.182315 69.182315 0 0 0 24.378157-4.2652 97.825672 97.825672 0 0 0 57.795407-125.216859 437.359013 437.359013 0 0 0-187.825289-189.35137l-51.612825-25.630326a100.995223 100.995223 0 0 0-42.29982-13.14777 8.099966 8.099966 0 0 0-1.721732 0A95.164813 95.164813 0 0 0 418.693874-27.47434l79.590967 216.077344a136.329856 136.329856 0 0 0 113.477779 96.495242M612.584356 886.217433a147.442852 147.442852 0 0 1-62.60843-17.843403l-51.612825-25.630326a476.215369 476.215369 0 0 1-210.520845-214.355611 143.647216 143.647216 0 0 1 84.834423-183.912263 115.199511 115.199511 0 0 1 40.069395-7.043448 179.647063 179.647063 0 0 1 156.521074 126.312507l79.590967 215.920822c24.80859 67.108411 8.334747 106.551722-36.234629 106.551722z m94.656119-269.177118a143.686346 143.686346 0 0 1-134.764645-93.716994c-27.391188-73.956208 26.412931-162.429745 119.151668-196.512209l216.077344-79.590966a163.603653 163.603653 0 0 1 55.017157-11.543429c51.612824 0 67.656234 42.104169 33.769422 110.386488l-25.630326 51.612824a476.215369 476.215369 0 0 1-214.355611 210.520845 140.399404 140.399404 0 0 1-49.265009 8.843441z m-645.649432-84.756162c-51.730215 0-67.656234-42.104169-33.769422-110.386488l25.630326-51.612824a476.215369 476.215369 0 0 1 214.355612-210.520845 141.26027 141.26027 0 0 1 49.147617-8.765181 143.686346 143.686346 0 0 1 134.764645 93.716994c27.391188 73.956208-26.412931 162.429745-119.151668 196.512209L116.686461 520.779854a164.112347 164.112347 0 0 1-55.173679 11.543429z m549.897665-201.520883a179.647063 179.647063 0 0 1-156.521075-126.312508l-79.590966-216.077343c-24.6912-67.108411-8.217356-106.629982 36.312889-106.629982a147.481982 147.481982 0 0 1 62.60843 17.843402l51.612825 25.630326a476.215369 476.215369 0 0 1 210.520845 214.355612 143.647216 143.647216 0 0 1-84.951813 183.912263 113.008216 113.008216 0 0 1-40.069396 7.27823z"  horiz-adv-x="1024" />

    
    <glyph glyph-name="renwu" unicode="&#58894;" d="M875.374 105.80100000000004h0.183a392.411 392.411 0 0 1-174.958 328.156 268.032 268.032 0 0 1 52.37 159.817c0 146.724-116.553 265.655-260.352 265.655-143.726 0-260.315-118.93-260.315-265.655 0-59.977 19.492-115.347 52.37-159.817A392.411 392.411 0 0 1 109.714 105.79999999999995h0.147v-124.343l-0.074-1.536c0-18.651 14.775-33.682 33.024-33.682a33.353 33.353 0 0 1 32.988 33.646l-0.073 1.572V115.89499999999998a324.498 324.498 0 0 0 156.196 268.873 255.963 255.963 0 0 1 160.695-56.65 255.963 255.963 0 0 1 160.695 56.613 324.462 324.462 0 0 0 156.233-268.726v-134.583c-0.036-0.476-0.11-0.988-0.11-1.5 0-18.651 14.775-33.682 33.024-33.682a33.353 33.353 0 0 1 32.988 33.646l-0.073 1.572V105.80100000000004zM492.617 400.64c-104.521 0-189.257 86.455-189.257 193.134s84.736 193.133 189.257 193.133 189.294-86.454 189.294-193.133-84.773-193.097-189.294-193.097z"  horiz-adv-x="1024" />

    
    <glyph glyph-name="dongtai2" unicode="&#59044;" d="M512 798.47619c206.60419 0 377.904762-151.161905 409.33181-348.94019l11.873523-5.046857 5.753905-2.389333c57.246476-23.868952 83.382857-52.370286 61.074286-106.325334-9.094095-21.942857-42.788571-46.445714-90.672762-70.046476C858.453333 94.45181 699.806476-30.47619 512-30.47619c-152.454095 0-285.671619 82.310095-357.668571 204.897523-47.152762 9.240381-82.797714 21.552762-99.157334 36.425143-30.573714 27.818667-34.913524 63.73181-14.360381 95.695238 12.141714 18.895238 32.451048 35.718095 57.636572 49.639619A419.181714 419.181714 0 0 0 97.52381 384c0 228.912762 185.563429 414.47619 414.47619 414.47619z m319.609905-565.76l-0.804572-0.316952c-87.942095-32.572952-196.022857-59.538286-290.133333-69.729524l-8.777143-0.926476c-96.719238-9.45981-205.385143-8.533333-295.448381 0.780191A352.792381 352.792381 0 0 1 512 30.47619c141.116952 0 262.92419 82.67581 319.609905 202.24zM512 737.52381C316.757333 737.52381 158.47619 579.242667 158.47619 384c0-55.710476 12.897524-108.422095 35.84-155.306667 89.161143-12.53181 221.135238-17.115429 331.605334-6.290285 83.675429 8.216381 186.026667 32.426667 274.553905 63.853714l14.726095 5.363809c15.067429 5.607619 29.257143 11.288381 42.25219 16.896 5.290667 24.33219 8.070095 49.590857 8.070096 75.483429 0 195.242667-158.281143 353.52381-353.52381 353.52381zM108.251429 290.011429l-2.072381-1.633524a66.511238 66.511238 0 0 1-14.092191-14.799238c-4.608-7.168-4.242286-10.020571 4.120381-17.627429 4.754286-4.33981 13.55581-8.484571 25.673143-12.336762a415.841524 415.841524 0 0 0-13.653333 46.396953zM926.47619 381.123048L926.47619 384c0-14.043429-0.707048-27.91619-2.07238-41.593905 10.922667 6.972952 17.67619 12.751238 19.309714 16.676572 3.949714 9.581714 2.364952 13.263238-17.212953 22.040381z m-628.736 123.294476c15.579429-6.38781 23.04-24.161524 16.676572-39.740953a211.529143 211.529143 0 0 1-12.629333-43.934476 30.47619 30.47619 0 1 0-60.050286 10.410667c3.364571 19.480381 8.825905 38.424381 16.262095 56.563809a30.47619 30.47619 0 0 0 39.740952 16.700953zM512 658.285714a30.47619 30.47619 0 0 0 0-60.952381c-57.051429 0-110.518857-22.479238-150.211048-61.854476a30.47619 30.47619 0 0 0-42.934857 43.276191A273.456762 273.456762 0 0 0 512 658.285714z"  horiz-adv-x="1024" />

    
    <glyph glyph-name="haoyou" unicode="&#58895;" d="M412.802723 255.673191A320.054468 320.054468 0 1 0 730.417021 575.72766a319.204766 319.204766 0 0 0-317.614298-320.054469z m0 575.400852A255.346383 255.346383 0 1 1 666.253617 575.72766 254.58383 254.58383 0 0 1 412.802723 831.074043zM793.491064-127.782128a32.13617 32.13617 0 0 0-32.092596 32.245107 348.595745 348.595745 0 1 1-697.191489 0 32.092596 32.092596 0 1 0-64.185192 0 412.802723 412.802723 0 1 0 825.58366 0 32.13617 32.13617 0 0 0-32.114383-32.245107z m-95.144851 383.455319a32.354043 32.354043 0 0 0 0 64.708086 255.346383 255.346383 0 0 1 0 510.692766 32.354043 32.354043 0 0 0 0 64.708085 320.054468 320.054468 0 0 0 0-640.108937z m380.68834-383.455319a32.114383 32.114383 0 0 0-32.070808 32.245107 350.316936 350.316936 0 0 1-348.595745 351.210212 32.354043 32.354043 0 0 0 0 64.708086A414.807149 414.807149 0 0 0 1111.148936-95.537021a32.13617 32.13617 0 0 0-32.114383-32.245107z"  horiz-adv-x="1111" />

    
    <glyph glyph-name="chahao" unicode="&#58906;" d="M512.355328 681.324288c-210.798592 0-381.702144-170.872832-381.702144-381.642752 0-210.798592 170.902528-381.700096 381.702144-381.700096 210.768896 0 381.641728 170.901504 381.641728 381.700096C893.997056 510.451456 723.124224 681.324288 512.355328 681.324288zM679.54176 183.90912c14.20288-14.203904 14.20288-37.238784 0-51.47136-14.203904-14.203904-37.26848-14.176256-51.442688 0.05632l-115.74272 115.71712-115.745792-115.77344c-14.232576-14.176256-37.26848-14.176256-51.442688 0-14.231552 14.231552-14.231552 37.267456-0.028672 51.47136l115.745792 115.77344L345.166848 415.397632c-14.231552 14.204928-14.231552 37.23776-0.028672 51.470336 14.203904 14.175232 37.267456 14.175232 51.47136 0l115.745792-115.744768 115.74272 115.744768c14.175232 14.175232 37.238784 14.175232 51.442688 0 14.20288-14.232576 14.20288-37.266432 0-51.470336L563.795968 299.652864 679.54176 183.90912z"  horiz-adv-x="1024" />

    
    <glyph glyph-name="kebiao" unicode="&#58945;" d="M950.4-116.8H73.6c-34.6 0-62.6 28-62.6 62.6V697c0 34.6 28 62.6 62.6 62.6h125.2V838c0 26 21 47 47 47s47-21 47-47v-78.2h438.4V838c0 26 21 47 47 47s47-21 47-47v-78.2h125.2c34.6 0 62.6-28 62.6-62.6v-751.4c0-34.6-28-62.6-62.6-62.6zM919 665.8H105v-94h814v94z m0-187.8H105v-500.8h814V478zM361.8 283.8H261.6V384h100.2v-100.2z m0-200.4H261.6V183.6h100.2v-100.2zM562 283.8H462V384h100v-100.2z m0-200.4H462V183.6h100v-100.2z m200.4 200.4H662.2V384h100.2v-100.2z m0-200.4H662.2V183.6h100.2v-100.2z"  horiz-adv-x="1024" />

    
    <glyph glyph-name="quxiao" unicode="&#58904;" d="M83.7 812.3c26.3 26.3 68.9 26.3 95.2 0l761.4-761.4c26.3-26.3 26.3-68.9 0-95.2-26.3-26.3-68.9-26.3-95.2 0l-761.4 761.4c-26.3 26.3-26.3 68.9 0 95.2zM83.7 50.9l761.4 761.4c26.3 26.3 68.9 26.3 95.2 0 26.3-26.3 26.3-68.9 0-95.2l-761.4-761.4c-26.3-26.3-68.9-26.3-95.2 0s-26.3 68.9 0 95.2z"  horiz-adv-x="1024" />

    
    <glyph glyph-name="yaoyiyao" unicode="&#58880;" d="M425.7 638.927l112.435 30.67c5.424 1.48 8.616 7.056 7.128 12.454-1.486 5.398-7.090 8.576-12.515 7.096l-112.434-30.67c-5.425-1.479-8.618-7.057-7.13-12.455 1.487-5.398 7.092-8.575 12.516-7.095v0 0zM824.275 188.249l-6.131 22.257c15.751 16.832 22.643 41.142 16.086 64.953-5.516 20.025-19.408 35.516-36.874 43.801 17.408 17.265 25.261 43.084 18.3 68.353-6.292 22.839-23.226 39.921-44.008 47.443 14.024 17.016 19.835 40.302 13.545 63.141-6.292 22.84-23.223 39.921-44.008 47.442 14.025 17.017 19.836 40.302 13.543 63.141-7.883 28.619-32.467 48.207-60.415 51.248l-20.719 75.207c-8.943 32.461-42.633 51.561-75.255 42.662l-281.931-76.905c-32.621-8.897-51.815-42.426-42.873-74.885l8.35-30.311c-27.773-16.558-49.489-39.577-64.643-60.81-17.779-24.914-30.34-79.611-34.219-108.905-3.877-29.295 21.935-85.046 25.465-92.442 3.531-7.395 18.216-30.884-8.907-59.831-27.122-28.948-94.529-68.887-109.037-83.989-14.508-15.102-43.749-66.177 5.638-109.923 49.388-43.746 145.497-121.559 145.497-121.559 0 0 68.409-50.445 114.308 13.346l45.899 63.793 23.556 39.754c10.472-30.071 42.735-47.306 74.026-38.769l281.931 76.904c32.627 8.898 51.819 42.427 42.876 74.886v0 0zM779.261 215.451l-91.908-25.073c-23.238-6.336-47.238 7.269-53.608 30.392-6.37 23.124 7.302 47.006 30.54 53.345l91.908 25.072c23.236 6.338 47.237-7.268 53.608-30.391 6.368-23.126-7.304-47.007-30.54-53.345v0 0zM790.652 380.791c6.52-23.667-7.475-48.111-31.258-54.598l-111.108-30.309c-0.009 0-0.015-0.002-0.021-0.004-23.782-6.488-48.347 7.436-54.867 31.104-6.518 23.666 7.476 48.11 31.26 54.598l111.128 30.313c23.782 6.488 48.346-7.439 54.866-31.104v0 0zM760.19 491.376c6.52-23.666-7.476-48.111-31.259-54.598l-111.109-30.31c-0.007-0.002-33.351-9.096-33.358-9.099-23.783-6.487-48.348 7.439-54.867 31.106-6.52 23.667 7.476 48.111 31.259 54.598l144.467 39.408c23.781 6.487 48.345-7.439 54.867-31.104v0 0zM729.727 601.959c6.52-23.666-7.475-48.111-31.259-54.598l-111.109-30.308c-0.006-0.002-0.012-0.004-0.021-0.006-23.782-6.488-48.346 7.439-54.866 31.104-6.52 23.667 7.475 48.111 31.258 54.598l111.131 30.315c23.781 6.486 48.345-7.44 54.866-31.106v0 0zM313.109 612.572c-6.707 24.345 7.689 49.491 32.154 56.164l245.827 67.059c24.465 6.673 49.736-7.653 56.441-31.998l13.18-47.841-28.503-7.776c-7.079 10.786-20.578 16.308-33.733 12.72l-215.976-58.915c-6.319-1.724-11.624-5.302-15.501-9.976-9.94 6.438-31.014 17.935-52.714 16.293l-1.176 4.269zM321.699 451.273l91.029-330.444-85.512-120.586c0 0-23.64-36.172-54.175-14.779-30.535 21.394-30.535 21.394-30.535 21.394l-123.497 106.754c0 0-24.352 26.053-1.767 47.075 22.585 21.022 22.585 21.022 22.585 21.022 0 0 58.871 46.524 75.653 61.506 16.782 14.981 53.79 43.282 30.518 100.653-23.272 57.37-24.548 67.425-24.76 84.459-0.211 17.032 15.070 67.274 25.782 88.029 0 0 17.69 28.822 44.353 46.043 9.456 6.043 19.015 9.597 26.268 11.157 14.059 2.515 26.814-1.36 37.672-7.084 1.555-0.603 3.925-1.776 6.915-3.386 0.406-0.218 0.823-0.446 1.252-0.68 0.317-0.174 0.634-0.347 0.962-0.529 0.314-0.175 0.638-0.354 0.961-0.535 0.314-0.177 0.635-0.355 0.958-0.538 0.338-0.19 0.672-0.378 1.019-0.575 0.381-0.215 0.774-0.441 1.166-0.666 0.579-0.331 1.171-0.671 1.777-1.021 0.334-0.193 0.667-0.385 1.010-0.584 0.414-0.242 0.835-0.486 1.259-0.735 0.321-0.188 0.648-0.379 0.975-0.572 0.447-0.262 0.891-0.522 1.347-0.791 0.216-0.127 0.441-0.262 0.66-0.39 0.935-0.552 1.889-1.121 2.866-1.703 0.317-0.189 0.634-0.377 0.954-0.57 0.508-0.304 1.020-0.611 1.537-0.921 0.337-0.202 0.677-0.407 1.018-0.612 1.776-1.069 3.604-2.176 5.479-3.317 0.355-0.216 0.71-0.432 1.068-0.651 0.543-0.331 1.087-0.663 1.636-0.998 0.402-0.247 0.808-0.495 1.213-0.743 39.029-23.911 93.967-59.716 93.967-59.716-7.586-42.939-29.354-61.509-76.852-62.576-2.927-0.065-5.798-0.032-8.611 0.085-10.615 0.028-36.54 6.596-36.54 6.596-22.618 7.287-37.529 18.242-41.61 20.927v0 0zM508.621 75.736c-24.465-6.674-49.736 7.65-56.442 31.995l-78.057 283.357c14.245-2.496 35.44-2.602 35.44-2.602l50.403-182.964c4.471-16.229 21.317-25.783 37.628-21.334l105.047 28.658c0.046-0.177 0.084-0.351 0.133-0.526 1.399-5.081 3.357-9.862 5.756-14.319-15.667-5.537-24.618-22.25-20.153-38.464 4.68-16.985 22.31-26.982 39.381-22.325 12.976 3.54 21.884 14.528 23.359 27.055 11.53-3.143 24.026-3.357 36.391 0.017l98.452 26.855c0.682 0.185 1.347 0.401 2.019 0.605 2.386-21.916-11.477-42.938-33.526-48.951l-245.83-67.057zM149.616 658.056c2.97-0.852 5.984-0.822 8.762-0.064 5.264 1.437 9.675 5.485 11.299 11.086 17.196 59.299 62.116 107.257 120.163 128.288 8.409 3.046 12.744 12.3 9.682 20.668-3.062 8.367-12.347 12.672-20.77 9.634-67.74-24.543-120.156-80.487-140.212-149.65-2.482-8.555 2.477-17.493 11.076-19.962v0 0zM302.503 762.486c-46.704-16.978-82.92-55.568-96.879-103.232-2.504-8.549 2.431-17.499 11.024-19.992 2.981-0.864 6.011-0.837 8.803-0.075 5.25 1.431 9.651 5.463 11.287 11.046 11.084 37.852 39.827 68.491 76.883 81.962 8.406 3.056 12.73 12.314 9.661 20.678-3.069 8.364-12.373 12.668-20.778 9.613v0 0zM942.196 178.567c-3.076 0.294-6.034-0.287-8.625-1.541-4.907-2.375-8.494-7.164-9.057-12.966-5.937-61.432-41.222-116.795-94.392-148.097-7.702-4.533-10.252-14.421-5.696-22.087 4.558-7.663 14.478-10.195 22.198-5.666 62.045 36.526 103.224 101.111 110.15 172.764 0.858 8.865-5.669 16.745-14.578 17.594v0 0zM887.364 167.136c0.88 8.862-5.627 16.756-14.53 17.633-3.092 0.303-6.066-0.277-8.668-1.539-4.896-2.366-8.476-7.136-9.052-12.923-3.896-39.234-26.484-74.613-60.418-94.64-7.698-4.542-10.237-14.434-5.671-22.094 4.564-7.659 14.506-10.187 22.203-5.642 42.768 25.238 71.229 69.8 76.136 119.205v0 0z"  horiz-adv-x="1024" />

    
    <glyph glyph-name="zuobiao" unicode="&#58992;" d="M512.027 832c-185.554 0-336.054-150.446-336.054-336 0-185.609 336.054-560 336.054-560s336 374.391 336 560c0 185.554-150.445 336-336 336z m0-560c-123.758 0-224.054 100.297-224.054 224S388.27 720 512.027 720c123.703 0 224-100.297 224-224s-100.297-224-224-224z m0 336c-61.852 0-112.054-50.148-112.054-112s50.203-112 112.054-112 111.946 50.148 111.946 112-50.094 112-111.946 112z"  horiz-adv-x="1024" />

    
    <glyph glyph-name="fujinderen" unicode="&#58881;" d="M655.747-32.973zM301.784 756.19zM164.068 756.19c0-77.187 61.668-139.787 137.717-139.787 76.072 0 137.739 62.578 137.739 139.787 0 77.232-61.668 139.81-137.739 139.81-76.049 0-137.717-62.578-137.717-139.81M722.193 756.19zM584.499 756.19c-0-0.111-0-0.242-0-0.373 0-51.101 27.345-95.816 68.2-120.31 20.348-12.131 44.114-19.094 69.506-19.094 25.392 0 49.158 6.963 69.493 19.084 40.88 24.49 68.236 69.204 68.236 120.307 0 0.136-0 0.271-0.001 0.407 0 0.096 0.001 0.235 0.001 0.375 0 51.107-27.355 95.825-68.222 120.31-20.351 12.119-44.117 19.075-69.507 19.075-25.39 0-49.156-6.956-69.495-19.066-41.974-24.595-68.211-70.744-68.211-120.715M907.514 136.829l-0.182-0.091-129.616 227.897h1.434v60.439h196.904v110h-922.852v-110h196.904v-53.498l-133.53-234.792-0.091 0.046-116.486-204.777 93.867-55 28.24 49.653 0.091-0.046 179.428 315.46 147.752-259.755-0.41-0.705 1.206-0.705 30.879-54.295 30.925-54.659 30.834 54.636 30.879 54.295 1.206 0.705-0.41 0.705 147.752 259.755 179.45-315.46 0.159 0.091 28.285-49.698 93.867 55.023-116.486 204.777zM670.766 371.553l-158.811-279.211-154.897 272.27h1.434v60.439h312.252v-53.498h0.023z"  horiz-adv-x="1024" />

    
    <glyph glyph-name="iconfontyoujiantou" unicode="&#58882;" d="M267.354606 823.994036c-13.515828-12.812817-13.515828-33.603329 0-46.417169l414.889265-393.579937-414.889265-393.565611c-13.515828-12.821003-13.515828-33.604352 0-46.425356 13.508665-12.81998 35.418674-12.81998 48.927339 0l432.159604 410.009118c0 0 18.33867 16.991999 18.33867 29.981848 0 11.971659-18.33867 29.989011-18.33867 29.989011L316.282968 823.994036C302.77328 836.815039 280.863271 836.815039 267.354606 823.994036z"  horiz-adv-x="1024" />

    
    <glyph glyph-name="xiaochengxu" unicode="&#58926;" d="M512 896a512 512 0 1 1 512-512A512 512 0 0 1 512 896z m256.7168-460.1856a151.9616 151.9616 0 0 0-87.3472-65.7408 83.2512 83.2512 0 0 0-24.4736-4.096 29.0816 29.0816 0 0 0 0 58.1632 15.6672 15.6672 0 0 1 6.4512 1.2288 91.4432 91.4432 0 0 1 55.9104 40.96 75.264 75.264 0 0 1 11.0592 39.6288c0 45.9776-42.496 83.8656-94.3104 83.8656a105.2672 105.2672 0 0 1-51.2-13.4144 81.92 81.92 0 0 1-43.7248-70.4512v-244.224a138.4448 138.4448 0 0 0-72.704-120.4224 159.6416 159.6416 0 0 0-79.7696-20.48c-84.3776 0-153.6 63.488-153.6 142.0288a136.192 136.192 0 0 0 19.7632 69.8368 151.9616 151.9616 0 0 0 87.3472 65.7408 85.9136 85.9136 0 0 0 24.4736 4.096 29.0816 29.0816 0 1 0 0-58.1632 15.6672 15.6672 0 0 1-6.4512-1.2288 95.9488 95.9488 0 0 1-55.9104-40.96 75.264 75.264 0 0 1-11.0592-39.6288c0-45.9776 42.496-83.8656 94.9248-83.8656a105.2672 105.2672 0 0 1 51.2 13.4144 81.92 81.92 0 0 1 43.6224 70.4512V505.6512a138.752 138.752 0 0 0 72.8064 120.5248 151.2448 151.2448 0 0 0 79.1552 21.504c84.3776 0 153.6-63.488 153.6-142.0288a136.192 136.192 0 0 0-19.7632-69.8368z"  horiz-adv-x="1024" />

    
    <glyph glyph-name="pengyouquan" unicode="&#58893;" d="M521.216 896c-18.944 0-38.4-1.024-56.832-3.072-45.568-5.12-89.088-16.384-130.56-32.768 0 0 339.968-335.872 348.672-348.672v358.4a1037.531 1037.531 0 0 0-30.72 9.728C609.792 890.368 566.272 896 521.216 896zM876.032 749.568c-13.824 13.824-27.648 26.112-42.496 37.888-36.352 28.672-74.752 51.712-115.712 69.12 0 0 2.56-477.696 0-493.056l253.44 253.44c-4.608 9.728-10.24 18.944-15.36 28.16-22.016 37.888-48.128 73.216-79.872 104.448zM987.136 577.536S651.264 237.568 638.464 228.864h358.4a1037.531 1037.531 0 0 0 9.728 30.72c11.264 41.472 17.408 84.992 17.408 130.048 0 18.944-1.024 38.4-3.072 56.832-6.144 46.08-16.896 90.112-33.792 131.072zM488.448 191.488l253.44-253.44c9.728 4.608 18.944 10.24 28.672 15.36 37.376 21.504 72.192 47.616 104.448 79.872 13.824 13.824 26.112 27.648 37.888 42.496 28.672 36.352 51.712 74.752 69.12 115.712 0 0-478.208-2.56-493.568 0zM358.912 270.848v-358.4c10.24-3.072 20.992-6.144 30.72-9.728 41.472-11.264 84.992-17.408 130.048-17.408 18.944 0 38.4 1.024 56.832 3.072 44.544 5.12 88.576 16.384 130.56 32.768 0 1.024-339.456 337.408-348.16 349.696zM323.072 419.84L69.632 166.4c4.608-9.728 10.24-18.944 15.36-28.672 21.504-37.376 47.616-72.192 79.872-104.448 13.824-13.824 27.648-26.112 42.496-37.888 36.352-28.672 74.752-51.712 115.712-69.12 0 1.024-2.56 478.72 0 493.568zM34.304 521.728C23.04 480.256 17.408 436.736 17.408 391.68c0-18.944 1.024-38.4 3.072-56.832 5.12-45.568 16.384-89.088 32.768-130.56 0 0 335.872 339.968 348.16 348.672H44.032c-3.584-10.752-7.168-20.48-9.728-31.232zM267.776 826.88c-37.376-21.504-72.192-47.616-103.936-79.872-13.824-13.824-26.112-28.16-37.888-42.496C97.28 668.16 74.24 629.76 56.832 588.8c0 0 478.208 2.56 493.056 0L295.936 841.728a745.958 745.958 0 0 1-28.16-14.848z"  horiz-adv-x="1024" />

    
    <glyph glyph-name="xingtaiduICON_sousuo--" unicode="&#58883;" d="M222.6944 673.2032A323.1488 323.1488 0 0 1 133.6832 384c19.2512 87.3728 64.512 172.7488 135.0144 243.3024C339.2512 697.8815999999999 424.6272 743.1168 512 762.3679999999999c-101.632 19.1488-210.688-10.5216-289.3056-89.1648zM989.44 73.88160000000005l-121.7024 121.7024a118.016 118.016 0 0 1-92.8 34.1248c114.4576 165.5552 97.92 394.3936-49.4848 541.824-165.9392 165.9904-435.0464 165.9904-601.0368 0-165.9392-165.9904-165.9392-435.1232 0-601.1136 147.4048-147.4304 376.064-163.84 541.7216-49.3824-2.56-33.28 8.8576-67.5328 34.1248-92.8l121.7024-121.728c46.08-45.9776 121.3696-45.9776 167.3472 0 46.208 45.9776 46.208 121.2928 0.128 167.3728zM676.096 219.904c-138.6752-138.6752-363.392-138.6752-502.016 0-138.6752 138.6752-138.6752 363.4432 0 502.1184 138.624 138.6752 363.3408 138.6752 502.016 0 138.6496-138.5728 138.6496-363.4432 0-502.1184z"  horiz-adv-x="1024" />

    
    <glyph glyph-name="shoucang" unicode="&#58884;" d="M327.728 91.699l150.605 60.966 33.721 13.628 33.721-13.628 150.61-60.914-4.485 166.562-0.907 32.986 20.663 25.711 96.564 120.353-155.377 47.062-30.031 9.082-17.826 25.717-92.932 134.033-92.87-134.033-17.827-25.717-30.033-9.082-155.49-47.12L312.4 317.01l20.664-25.711-0.908-32.986-4.428-166.614M789.94-43.13L512.054 69.273l-277.88-112.402 8.115 303.886L62.39 484.824l282.88 85.667 166.784 240.64 166.844-240.64 282.712-85.667-179.844-224.068 8.174-303.885z"  horiz-adv-x="1024" />

    
    <glyph glyph-name="kefu" unicode="&#58885;" d="M528 368c-26.528 0-48 21.472-48 48v64c0 26.528 21.472 48 48 48 26.496 0 48-21.472 48-48v-64c0-26.528-21.504-48-48-48z m191.008 0c-26.496 0-48 21.472-48 48v64c0 26.528 21.504 48 48 48s48-21.472 48-48v-64c0-26.528-21.504-48-48-48zM512 828.48c-81.152 0-159.488-21.696-228.48-62.72C244.96 808.032 189.056 832 125.344 832c-11.648 0-22.336-6.368-27.968-16.544s-5.28-22.688 0.896-32.544c0.352-0.512 33.536-54.304 41.888-136.832 1.664-16.48 15.584-28.768 31.808-28.768 1.088 0 2.144 0.032 3.264 0.16 17.568 1.792 30.4 17.472 28.608 35.072-4.352 42.976-14.4 79.296-24.48 106.784 24.48-8.192 50.976-23.84 70.144-53.408 0.096-0.16 0.256-0.224 0.352-0.384 0.096-0.128 0.096-0.256 0.16-0.384 1.152-1.664 2.784-2.656 4.16-4.032 1.536-1.536 2.848-3.328 4.64-4.48 1.824-1.184 3.904-1.696 5.888-2.496 1.824-0.704 3.488-1.728 5.376-2.112 2.08-0.416 4.16-0.128 6.24-0.128 2.016 0 4-0.32 6.016 0.064 1.984 0.384 3.744 1.44 5.632 2.208 1.952 0.768 3.968 1.12 5.792 2.272 0.128 0.096 0.192 0.256 0.352 0.352 0.128 0.064 0.288 0.096 0.416 0.16 64.096 44.16 139.296 67.52 217.472 67.52 211.584 0 383.712-172.128 383.712-383.744S723.584-3.008000000000038 512-3.008000000000038s-383.744 172.16-383.744 383.744c0 54.176 11.04 106.528 32.864 155.616 7.168 16.128-0.096 35.04-16.256 42.24-16.128 7.168-35.04-0.096-42.24-16.256-25.44-57.312-38.368-118.4-38.368-181.568 0-246.88 200.864-447.744 447.744-447.744s447.712 200.864 447.712 447.744S758.88 828.48 512 828.48z"  horiz-adv-x="1024" />

    
    <glyph glyph-name="shenhebijijishibenxiezi" unicode="&#58993;" d="M335.872 334.336l-0.128-0.512c-0.128-0.384-0.256-0.896-0.64-1.536l-0.384-0.512c-0.384-0.512-0.64-0.768-0.768-1.152L285.824 154.24c-2.432-9.088 0.128-18.688 6.784-25.6 4.864-4.736 11.648-7.424 18.688-7.424 2.304 0 4.608 0.256 6.784 0.896l177.28 47.744 0.256-0.128 0.512 0.128c0.896 0.256 1.28 0.384 1.792 1.024L966.4 639.488c13.056 13.184 20.352 31.232 20.352 51.072 0 22.528-9.6 44.928-26.24 61.44l-44.288 44.288c-16.64 16.64-39.168 26.24-61.696 26.24-19.584 0-37.76-7.168-51.072-20.352l-467.584-467.84z m460.288 378.88l48.384 48.384c8.704 8.576 24.96 7.552 34.944-2.048l44.288-44.288c5.248-5.248 8.32-12.416 8.32-19.328-0.256-6.4-2.304-11.52-6.144-15.36l-49.28-49.152-80.512 81.792zM410.24 327.04l343.424 343.424 80.768-82.048L491.52 245.632l-81.28 81.408z m-61.696-142.336l27.648 102.016 74.112-74.24-101.76-27.776zM952.96 493.44c-15.744 0-28.544-12.928-28.544-28.8v-436.864c0-24.96-20.224-45.184-45.184-45.184h-739.2c-24.96 0-45.184 20.224-45.184 45.184V740.864c0 24.96 20.352 45.184 45.184 45.184h475.904c15.744 0 28.544 12.8 28.544 28.544s-12.8 28.544-28.544 28.544H134.912c-53.888 0-97.664-43.776-97.664-97.664v-722.944c0-53.888 43.776-97.664 97.664-97.664h748.8c53.888 0 97.664 43.776 97.664 97.664V464.896c0.128 15.744-12.672 28.544-28.416 28.544z"  horiz-adv-x="1024" />

    
    <glyph glyph-name="shijian" unicode="&#58886;" d="M944.001024 800.894976h-49.641472v14.749696C894.359552 859.856896 858.359808 896 814.360576 896h-1.183744c-43.999232 0-79.998976-36.143104-79.998976-80.355328v-14.749696H290.750464v14.749696C290.750464 859.856896 254.75072 896 210.74944 896h-1.216512C165.533696 896 129.533952 859.856896 129.533952 815.644672v-14.749696H79.998976C35.999744 800.894976 0 764.717056 0 720.566272v-768.210944C0-91.854848 35.999744-128 79.998976-128h864.002048C988.000256-128 1024-91.854848 1024-47.642624V720.566272c0 44.150784-35.999744 80.328704-79.998976 80.328704z m-178.825216 14.749696c0 26.568704 21.501952 48.20992 48.001024 48.20992h1.183744c26.464256 0 47.998976-21.641216 47.998976-48.20992v-142.931968c0-26.568704-21.53472-48.211968-47.998976-48.211968h-1.183744c-26.497024 0-48.001024 21.643264-48.001024 48.211968V815.644672z m-603.641856 0c0 26.568704 21.501952 48.20992 48.00512 48.20992h1.210368c26.431488 0 48.00512-21.641216 48.00512-48.20992v-142.931968c0-26.568704-21.57568-48.211968-48.00512-48.211968h-1.210368c-26.503168 0-48.00512 21.643264-48.00512 48.211968V815.644672zM944.001024-63.75424H79.998976c-8.677376 0-16.001024 7.469056-16.001024 16.111616V517.179392H960v-564.822016c0-8.64256-7.323648-16.105472-16.001024-16.105472v-0.006144z m0 0M181.59616 402.137088h147.615744v-72.636416H181.59616v72.636416z m257.742848 0h146.450432v-72.636416h-146.450432v72.636416z m256.575488 0h144.103424v-72.636416h-144.103424v72.636416zM181.59616 254.519296h147.615744v-71.462912H181.59616v71.462912z m257.742848 0h146.450432v-71.462912h-146.450432v71.462912z m256.575488 0h144.103424v-71.462912h-144.103424v71.462912zM181.59616 110.415872h147.615744v-74.981376H181.59616v74.981376z m257.742848 0h146.450432v-74.981376h-146.450432v74.981376z m256.575488 0h144.103424v-74.981376h-144.103424v74.981376z m0 0"  horiz-adv-x="1024" />

    
    <glyph glyph-name="xiaochengxu1" unicode="&#58971;" d="M643.2 662.4c-32 0-64-9.6-92.8-25.6-51.2-28.8-83.2-80-83.2-137.6v-230.4c0-38.4-38.4-70.4-83.2-70.4-48 0-83.2 32-83.2 70.4 0 25.6 19.2 51.2 48 60.8 3.2 0 3.2 0 6.4 3.2 22.4 9.6 38.4 25.6 44.8 41.6 3.2 12.8 3.2 25.6-3.2 35.2-6.4 9.6-22.4 16-38.4 16-6.4 0-16 0-22.4-3.2-41.6-12.8-80-38.4-102.4-76.8-16-22.4-22.4-51.2-22.4-76.8 0-89.6 80-163.2 176-163.2 32 0 64 9.6 92.8 25.6 51.2 28.8 83.2 80 83.2 137.6V499.2c0 38.4 38.4 70.4 83.2 70.4 48 0 83.2-32 83.2-70.4 0-28.8-19.2-51.2-51.2-64-22.4-6.4-41.6-25.6-48-41.6-3.2-12.8-3.2-25.6 3.2-35.2 6.4-9.6 22.4-16 38.4-16 6.4 0 16 0 22.4 3.2h3.2c41.6 12.8 76.8 38.4 102.4 76.8 16 22.4 22.4 51.2 22.4 80-3.2 86.4-83.2 160-179.2 160zM512 896C230.4 896 0 665.6 0 384s230.4-512 512-512 512 230.4 512 512S793.6 896 512 896z m0-940.8c-236.8 0-428.8 192-428.8 428.8S275.2 812.8 512 812.8s428.8-192 428.8-428.8-192-428.8-428.8-428.8z"  horiz-adv-x="1024" />

    
    <glyph glyph-name="bi" unicode="&#58909;" d="M933.23 646.08L773.86 805.45C756.31 823 733.3 831.78 710.11 831.78c-23.1 0-46.2-8.77-63.75-26.23l-20.14-20.15-379.09-379.18-127.5-127.5c-9.13-8.33-14.95-20.23-14.95-33.4L66.27-5.72a42.022 42.022 0 0 1-2.06-13.07c-0.09-24.62 19.97-44.77 44.59-44.77h0.18c4.48 0 8.86 0.72 13.07 1.97l251.05 38.41c13.16 0.09 25.07 5.82 33.4 14.95L534 119.36l379.09 379.09 20.23 20.15c35 35.09 35 92.48-0.09 127.48zM470 147.99L359.19 37.11l-1.01-0.93-0.54-0.7h-2.88l-2.96-0.47-218.19-33.3-2.65-0.62-2.8-0.86 0.86 2.72 0.39 2.88 33.38 218.19 0.47 2.8v2.88l1.63 1.63L275.7 342.22l261.21 261.21 194.3-194.3L470 147.99z m411.18 410.18l-17.6-17.68-80.01-80.01-195.3 195.3 80.09 80.01 17.6 17.6c7.51 7.43 17.44 11.5 28.08 11.5 10.64 0 20.57-4.07 28.08-11.5l139.14-139.22c15.4-15.4 15.4-40.59-0.08-56z"  horiz-adv-x="1024" />

    
    <glyph glyph-name="bianji" unicode="&#59000;" d="M318.09038 200.89c0.03-0.03 0.04-0.06 0.07-0.07 21.02-20.98 55.06-20.95 76.03 0.07l588.61 588.5c21.04 21.05 21.04 55.18 0 76.23-0.06 0.07-0.13 0.13-0.18 0.18-21.05 20.95-55.09 20.87-76.03-0.18l-588.5-588.5c-21.03-21.05-21.03-55.18 0-76.23zM970.12038 464.87h-0.23c-29.63 0-53.65-24.02-53.65-53.65v-431.43H107.81038v808.6l431.4-0.2h0.04c29.69 0.08 53.69 24.23 53.61 53.92v0.23c0 29.63-24.02 53.65-53.65 53.65H53.54038a53.708 53.708 0 0 1-38.02-15.8A53.326 53.326 0 0 1 0.00038 842.38v-916.83a54.272 54.272 0 0 1 15.79-38.01 53.307 53.307 0 0 1 37.82-15.52h916.86a54.272 54.272 0 0 1 38.01 15.79 53.417 53.417 0 0 1 15.52 37.86V411.22c-0.07 29.69-24.19 53.71-53.88 53.65z"  horiz-adv-x="1024" />

    
    <glyph glyph-name="gouwu" unicode="&#58896;" d="M390.7 94c-50.9 0-92.4-41.4-92.4-92.4 0-51 41.5-92.4 92.4-92.4s92.2 41.4 92.2 92.4c0.1 51.1-41.3 92.4-92.2 92.4z m414.5 0c-50.9 0-92.4-41.4-92.4-92.4 0-51 41.5-92.4 92.4-92.4 50.9 0 92.4 41.4 92.4 92.4 0 51.1-41.5 92.4-92.4 92.4z m207.7 625.6c-17.9 26.7-49 31.5-54.8 32.2l-727.7 0.2c-3.2 16.5-5.7 28.7-7.3 35.4-18.1 70.3-64.3 75.7-78 75.7H32.6C14.6 863.1 0 848.5 0 830.5s14.6-32.7 32.6-32.7H145c1.6-0.2 9.3-5.3 14.6-26 7.2-30.9 39.6-207.5 98.8-540.1l5.7-31.1c3.1-16.8 17.2-55.8 80.8-55.8h568.5c18 0 32.7 14.7 32.7 32.7 0 18-14.6 32.6-32.6 32.6H344.8c-12.6 0-16.3 2.2-16.6 2.2l-20.1 112.4h540.4c65.3 0 94.8 47.9 101.1 72.9 0.1 0.4 1.6 5.9 4.1 15.2 13.3 49.6 53.9 200.5 66.2 241.9 9.2 31.1 1.2 52.4-7 64.9z"  horiz-adv-x="1024" />

    
    <glyph glyph-name="552dc065f0478" unicode="&#58887;" d="M822.3957520507813-6.42799013671879L210.93182421875002-6.42799013671879c-32.377148437500004 0-58.71668994140625 26.340441503906252-58.71668994140625 58.71668994140625L152.21513427734374 266.13041542968756c0 8.94083818359375 7.248186035156249 16.18902421875 16.18902421875 16.18902421875s16.18902421875-7.248186035156249 16.18902421875-16.18902421875l0-213.84171562499998c0-14.52245361328125 11.815289648437501-26.338642382812502 26.338642382812502-26.338642382812502l611.4639278320312 0c14.523352734374999 0 26.338642382812502 11.816188769531252 26.338642382812502 26.338642382812502L848.7343944335937 266.13041542968756c0 8.94083818359375 7.248186035156249 16.18902421875 16.18902421875 16.18902421875s16.18902421875-7.248186035156249 16.18902421875-16.18902421875l0-213.84171562499998C881.1124419921875 19.912451367187487 854.7720004882813-6.42799013671879 822.3957520507813-6.42799013671879zM864.9234177734374 482.09379228515627c-8.94083818359375 0-16.18902421875 7.248186035156249-16.18902421875 16.18902421875l0 228.88581503906252c0 14.52245361328125-11.815289648437501 26.338642382812502-26.338642382812502 26.338642382812502L210.93182421875002 753.5072739257812c-14.523352734374999 0-26.338642382812502-11.815289648437501-26.338642382812502-26.338642382812502l0-228.88581503906252c0-8.94083818359375-7.248186035156249-16.18902421875-16.18902421875-16.18902421875s-16.18902421875 7.248186035156249-16.18902421875 16.18902421875l0 228.88581503906252c0 32.376249316406245 26.340441503906252 58.71668994140625 58.71668994140625 58.71668994140625l611.4639278320312 0c32.376249316406245 0 58.71668994140625-26.340441503906252 58.71668994140625-58.71668994140625l0-228.88581503906252C881.1124419921875 489.34197832031253 873.8651550781249 482.09379228515627 864.9234177734374 482.09379228515627zM906.7423642578125 371.15580820312505L127.07987626953121 371.15580820312505c-8.94083818359375 0-16.18902421875 7.248186035156249-16.18902421875 16.18902421875s7.248186035156249 16.18902421875 16.18902421875 16.18902421875l779.6615897460937 0c8.94083818359375 0 16.18902421875-7.248186035156249 16.18902421875-16.18902421875S915.6832024414064 371.15580820312505 906.7423642578125 371.15580820312505z"  horiz-adv-x="1024" />

    
    <glyph glyph-name="shuangyoujiantou" unicode="&#58903;" d="M460.913778-105.813333a58.254222 58.254222 0 0 0 8.931555 81.806222L978.488889 385.194667 472.348444 791.893333A58.254222 58.254222 0 0 0 545.28 882.688l562.631111-452.152889a58.311111 58.311111 0 0 0 0-90.794667l-565.020444-454.542222a58.424889 58.424889 0 0 0-81.976889 8.931556z m-440.035556 0a58.254222 58.254222 0 0 0 8.931556 81.806222l508.700444 409.201778L32.369778 791.893333A58.254222 58.254222 0 0 0 105.244444 882.688l562.631112-452.152889a58.311111 58.311111 0 0 0 0-90.794667l-565.020445-454.542222a58.424889 58.424889 0 0 0-81.976889 8.931556z"  horiz-adv-x="1137" />

    
    <glyph glyph-name="shuangzuojiantou" unicode="&#58907;" d="M631.466667-127.601778c-12.856889 0-25.770667 4.266667-36.579556 12.8L29.809778 339.740444a58.311111 58.311111 0 0 0 0 90.794667l562.631111 452.152889a58.254222 58.254222 0 0 0 72.988444-90.794667L159.288889 385.137778l508.643555-409.201778a58.254222 58.254222 0 0 0-36.522666-103.594667z m439.978666 0c-12.8 0-25.770667 4.266667-36.579555 12.8L469.902222 339.740444a58.311111 58.311111 0 0 0 0 90.794667l562.631111 452.152889a58.254222 58.254222 0 0 0 72.931556-90.794667L599.267556 385.137778l508.700444-409.201778a58.254222 58.254222 0 0 0-36.522667-103.594667z"  horiz-adv-x="1137" />

    
    <glyph glyph-name="shangchuan" unicode="&#58942;" d="M558.342421 104.642675a46.528535 46.528535 0 0 0-93.05707 0v651.399491a46.528535 46.528535 0 1 0 93.05707 0v-651.399491z m372.228281-139.585605v232.642676a46.528535 46.528535 0 1 0 93.05707 0v-279.171211a46.528535 46.528535 0 0 0-46.528535-46.528535H46.528535a46.528535 46.528535 0 0 0-46.528535 46.528535v279.171211a46.528535 46.528535 0 1 0 93.05707 0v-232.642676h837.513632z m-442.021084 815.179935l-221.475827-241.948383a46.714649 46.714649 0 0 0-68.862232 63.278808l255.906943 279.17121a46.528535 46.528535 0 0 0 68.862232 0l255.906943-279.17121a46.714649 46.714649 0 0 0-68.862232-63.278808l-221.475827 241.948383z"  horiz-adv-x="1024" />

    
    <glyph glyph-name="fenxiang" unicode="&#58888;" d="M853.57763047 234.28456167000002c-65.67886238 0-119.38098989-35.15750804-144.39047088-89.73535524l-317.4735906 135.04089038c18.51886258 28.69264883 28.69264883 63.85015691 28.69264886 101.76360159 0 15.71141429-1.8544624 31.44858551-5.56338496 46.25852556l202.70299753 157.26867771c26.86394335-20.34756807 61.11997713-32.37581442 99.05917651-32.37581446 91.64132922 0 160.12764207 68.46055598 160.1276421 159.09738547 0 90.66258639-68.51206758 159.12314013-160.1276421 159.12314011-91.64132922 0-159.20041087-68.46055598-159.20040864-159.12314011 0-23.12926165 4.63615603-44.40406313 12.02824643-62.89716877l-186.99158544-143.38597117c-37.01197045 55.50507838-98.10619067 94.37151122-167.51973252 94.37150892a204.96956162 204.96956162 0 0 1-205.48469111-205.38166563 204.96956162 204.96956162 0 0 1 205.48469111-205.35590868c42.5753554 0 82.36901945 11.07525829 114.7705931 31.42282856l364.71085663-155.38846066c4.63615603-86.02643041 71.26800424-149.85083038 159.17465398-149.85083037 91.66708611 0 159.22616782 68.43479904 159.22616779 159.09738321 0 90.66258639-68.51206758 160.05037133-159.20041085 160.05037358z"  horiz-adv-x="1024" />

    
    <glyph glyph-name="zu" unicode="&#58889;" d="M323.304457 708.853848L465.764005 873.056717a63.262023 63.262023 0 0 0 96.476985-1.103966l127.244024-153.5952 224.344989-47.470516a63.214025 63.214025 0 0 0 44.638605-87.837255l-84.669354-188.394113 85.821318-212.825349a63.262023 63.262023 0 0 0-51.262398-86.3973l-225.976938-26.735165-118.4123-168.474735a63.35802 63.35802 0 0 0-101.75682-2.351926l-134.3958 172.7946-210.473423 24.815224a63.262023 63.262023 0 0 0-52.17437 84.093372l71.277773 200.00975L63.296582 584.825724a63.262023 63.262023 0 0 0 47.9985 83.421393z m0 0M511.218584 632.152245l169.098716 58.318178a9.93569 9.93569 0 0 0 13.103591-7.823756l27.983125-164.826849 140.251617-126.044061a9.983688 9.983688 0 0 0-0.863973-15.551514l-140.875597-101.516828-26.639168-188.970094a10.031687 10.031687 0 0 0-13.871566-7.775757l-174.138559 74.781663-160.410987-74.25368a9.983688 9.983688 0 0 0-14.111559 7.727759l-25.151214 183.642261-142.363551 106.172682a9.983688 9.983688 0 0 0-0.479985 15.599513l135.499766 115.1964 32.254992 175.866504a10.031687 10.031687 0 0 0 13.10359 7.631761z m0 0"  horiz-adv-x="1024" />

    
    <glyph glyph-name="dianhua" unicode="&#58980;" d="M682.25 430.738c0-16.695 11.115-27.811 27.81-27.811s27.812 11.116 27.812 27.811A167.395 167.395 0 0 1 570.96 597.65c-16.695 0-27.811-11.116-27.811-27.811s11.16-27.812 27.811-27.812a111.597 111.597 0 0 0 111.29-111.289z m111.289 0c0-16.695 11.115-27.811 27.81-27.811s27.812 11.116 27.812 27.811c0 152.984-125.217 278.201-278.2 278.201-16.696 0-27.812-11.16-27.812-27.855s11.16-27.811 27.811-27.811c122.405 0 222.579-100.174 222.579-222.535zM417.976 528.1c30.623 30.579 33.391 77.898 5.58 111.289L337.31 747.866c-27.811 36.16-80.666 41.74-116.869 13.928-2.768-2.812-5.536-2.812-5.536-5.58l-75.13-75.13c-72.318-72.318 30.623-267.041 217.042-453.417C543.15 41.292 735.06-58.88 807.378 10.67l75.13 75.13c33.392 33.391 33.392 86.246 0 116.825l-5.536 5.58-108.52 86.246c-33.348 27.81-80.623 25.043-111.246-5.58l-47.275-47.319c-50.087 30.623-94.593 64.014-133.564 102.941-38.927 38.971-72.275 83.478-102.898 133.565l44.507 50.043z m-38.927 75.13c8.348-11.16 8.348-27.855-2.812-36.203l-61.202-63.97a29.569 29.569 0 0 1-5.536-33.392 721.425 721.425 0 0 1 122.405-164.1 721.512 721.512 0 0 1 164.1-122.405 29.569 29.569 0 0 1 33.39 5.58l63.971 63.97c11.16 11.116 25.043 11.116 36.203 2.769l108.477-89.014s2.768 0 2.768-2.768a26.889 26.889 0 0 0 0-38.971l-75.13-75.13c-36.115-36.115-208.606 55.666-372.75 217.042-164.1 161.332-253.114 336.548-216.955 372.75l77.854 77.899c11.16 8.348 30.623 8.348 38.971-5.58l86.246-108.521z"  horiz-adv-x="1024" />

    
    <glyph glyph-name="dianpu" unicode="&#59024;" d="M453.957818 686.545455h395.357091a139.636364 139.636364 0 0 0 138.914909-125.393455l54.900364-535.272727A139.636364 139.636364 0 0 0 904.215273-128H399.057455a139.636364 139.636364 0 0 0-138.91491 153.879273l54.923637 535.272727A139.636364 139.636364 0 0 0 453.934545 686.545455zM751.150545 896a139.636364 139.636364 0 0 0 138.91491-125.393455l71.610181-698.181818A139.636364 139.636364 0 0 0 822.760727-81.454545H154.693818a139.636364 139.636364 0 0 0-138.914909 153.879272l71.610182 698.181818A139.636364 139.636364 0 0 0 226.304 896h524.846545z m0-93.090909H226.304a46.545455 46.545455 0 0 1-45.777455-38.097455l-0.535272-3.700363-71.610182-698.181818a46.545455 46.545455 0 0 1 42.821818-51.176728l3.490909-0.116363h668.066909a46.545455 46.545455 0 0 1 46.545455 47.825454l-0.232727 3.490909-71.610182 698.181818a46.545455 46.545455 0 0 1-42.589091 41.63491L751.173818 802.909091zM651.636364 616.727273a46.545455 46.545455 0 0 0 46.545454-46.545455 209.454545 209.454545 0 0 0-418.909091 0 46.545455 46.545455 0 1 0 93.090909 0 116.363636 116.363636 0 0 1 232.610909-5.050182L605.090909 570.181818a46.545455 46.545455 0 0 0 46.545455 46.545455z"  horiz-adv-x="1047" />

    
    <glyph glyph-name="xiazai" unicode="&#58953;" d="M1024-25.6v256c0 28.16-23.04 51.2-51.2 51.2s-51.2-23.04-51.2-51.2v-256H102.4v256c0 28.16-23.04 51.2-51.2 51.2s-51.2-23.04-51.2-51.2v-358.4h1024v102.4zM258.56 448L475.648 230.4c10.24-10.24 23.04-14.848 36.352-14.848 13.312 0 26.112 5.12 36.352 14.848l217.088 217.6c19.968 19.968 19.968 52.224 0 72.192-19.968 19.968-52.224 19.968-72.192 0L563.2 390.144V844.8c0 28.16-23.04 51.2-51.2 51.2S460.8 872.96 460.8 844.8v-454.656L330.752 520.192c-19.968 19.968-52.224 19.968-72.192 0-19.968-19.968-19.968-52.224 0-72.192z"  horiz-adv-x="1024" />

    
    <glyph glyph-name="arrow-left" unicode="&#58890;" d="M733.45706667-4.91125569999997l-68.3091437-70.70606222-478.16521956 475.76830103 478.16521956 475.76830104 68.3091437-70.70606223-402.6653203-405.06223881z"  horiz-adv-x="1024" />

    


  </font>
</defs>
</svg>
